<svg id="Group_1992" data-name="Group 1992" xmlns="http://www.w3.org/2000/svg" xmlns:xlink="http://www.w3.org/1999/xlink" width="133.584" height="133.584" viewBox="0 0 133.584 133.584">
  <defs>
    <linearGradient id="linear-gradient" x1="0.5" y1="1.817" x2="0.5" y2="0.029" gradientUnits="objectBoundingBox">
      <stop offset="0" stop-color="#c41f00"/>
      <stop offset="1" stop-color="#e08f2a"/>
    </linearGradient>
    <linearGradient id="linear-gradient-2" x1="0.5" y1="2.011" x2="0.5" y2="-0.492" xlink:href="#linear-gradient"/>
    <linearGradient id="linear-gradient-4" x1="0.5" y1="1.529" x2="0.5" y2="-1.627" xlink:href="#linear-gradient"/>
    <linearGradient id="linear-gradient-6" x1="0.5" y1="0.478" x2="0.5" y2="-2.375" xlink:href="#linear-gradient"/>
    <linearGradient id="linear-gradient-7" x1="0.5" y1="0.478" x2="0.5" y2="-2.375" xlink:href="#linear-gradient"/>
    <linearGradient id="linear-gradient-8" x1="0.5" y1="2.084" x2="0.5" y2="-0.083" xlink:href="#linear-gradient"/>
    <linearGradient id="linear-gradient-9" x1="0.5" y1="2.084" x2="0.5" y2="-0.083" xlink:href="#linear-gradient"/>
    <linearGradient id="linear-gradient-10" x1="0.5" y1="2.029" x2="0.5" y2="-0.729" xlink:href="#linear-gradient"/>
    <linearGradient id="linear-gradient-12" x1="0.5" y1="1.72" x2="0.5" y2="-2.306" xlink:href="#linear-gradient"/>
    <linearGradient id="linear-gradient-13" x1="0.5" y1="1.72" x2="0.5" y2="-2.306" xlink:href="#linear-gradient"/>
    <linearGradient id="linear-gradient-14" x1="0.5" y1="1.159" x2="0.5" y2="0.421" xlink:href="#linear-gradient"/>
    <linearGradient id="linear-gradient-15" x1="0.5" y1="1.008" x2="0.5" y2="0.282" xlink:href="#linear-gradient"/>
    <linearGradient id="linear-gradient-16" x1="0.5" y1="1" x2="0.5" y2="0.278" xlink:href="#linear-gradient"/>
    <linearGradient id="linear-gradient-17" x1="0.5" y1="1.005" x2="0.5" y2="-0.519" xlink:href="#linear-gradient"/>
    <linearGradient id="linear-gradient-18" x1="0.5" y1="1.005" x2="0.5" y2="-0.518" xlink:href="#linear-gradient"/>
    <linearGradient id="linear-gradient-19" x1="0.5" y1="0.982" x2="0.5" y2="-0.115" xlink:href="#linear-gradient"/>
    <linearGradient id="linear-gradient-20" x1="0.5" y1="0.982" x2="0.5" y2="-0.115" xlink:href="#linear-gradient"/>
    <linearGradient id="linear-gradient-21" x1="0.5" y1="0.967" x2="0.5" y2="-0.988" xlink:href="#linear-gradient"/>
    <linearGradient id="linear-gradient-22" x1="0.5" y1="0.967" x2="0.5" y2="-0.988" xlink:href="#linear-gradient"/>
  </defs>
  <circle id="Ellipse_56" data-name="Ellipse 56" cx="66.792" cy="66.792" r="66.792" transform="translate(0)" fill="#e0cea0"/>
  <g id="Group_1986" data-name="Group 1986" transform="translate(14.73 24.756)">
    <path id="Path_2877" data-name="Path 2877" d="M539.99,740.507h0l0,0h0Z" transform="translate(-487.928 -669.701)" fill="#f47321" style="mix-blend-mode: screen;isolation: isolate"/>
    <path id="Path_2878" data-name="Path 2878" d="M540,740.5h0Z" transform="translate(-487.935 -669.693)" fill="#f47321" style="mix-blend-mode: screen;isolation: isolate"/>
    <path id="Path_2879" data-name="Path 2879" d="M539.986,740.479h0v0h0Z" transform="translate(-487.926 -669.678)" fill="#f47321" style="mix-blend-mode: screen;isolation: isolate"/>
    <path id="Path_2880" data-name="Path 2880" d="M539.986,740.479h0v0h0Z" transform="translate(-487.926 -669.678)" fill="#f47321" style="mix-blend-mode: screen;isolation: isolate"/>
    <path id="Path_2881" data-name="Path 2881" d="M540,740.489h0v0Z" transform="translate(-487.935 -669.685)" fill="#f47321" style="mix-blend-mode: screen;isolation: isolate"/>
    <path id="Path_2882" data-name="Path 2882" d="M540,740.489h0v0Z" transform="translate(-487.935 -669.685)" fill="#f47321" style="mix-blend-mode: screen;isolation: isolate"/>
    <path id="Path_2883" data-name="Path 2883" d="M539.989,740.435a.018.018,0,0,0,0,.006v0h0A.071.071,0,0,1,539.989,740.435Z" transform="translate(-487.928 -669.64)" fill="#f47321" style="mix-blend-mode: screen;isolation: isolate"/>
    <path id="Path_2884" data-name="Path 2884" d="M539.989,740.435a.018.018,0,0,0,0,.006v0h0A.071.071,0,0,1,539.989,740.435Z" transform="translate(-487.928 -669.64)" fill="#f47321" style="mix-blend-mode: screen;isolation: isolate"/>
    <path id="Path_2885" data-name="Path 2885" d="M539.989,740.435a.018.018,0,0,0,0,.006v0h0A.071.071,0,0,1,539.989,740.435Z" transform="translate(-487.928 -669.64)" fill="#f47321" style="mix-blend-mode: screen;isolation: isolate"/>
    <path id="Path_2886" data-name="Path 2886" d="M539.971,740.452h0l0,0Z" transform="translate(-487.911 -669.65)" fill="#f47321" style="mix-blend-mode: screen;isolation: isolate"/>
    <path id="Path_2887" data-name="Path 2887" d="M539.971,740.452h0l0,0Z" transform="translate(-487.911 -669.65)" fill="#f47321" style="mix-blend-mode: screen;isolation: isolate"/>
    <path id="Path_2888" data-name="Path 2888" d="M539.971,740.452h0l0,0Z" transform="translate(-487.911 -669.65)" fill="#f47321" style="mix-blend-mode: screen;isolation: isolate"/>
    <path id="Path_2889" data-name="Path 2889" d="M540.008,740.526h0Z" transform="translate(-487.945 -669.718)" fill="#f47321" style="mix-blend-mode: screen;isolation: isolate"/>
    <path id="Path_2890" data-name="Path 2890" d="M540,740.5Z" transform="translate(-487.938 -669.697)" fill="#f47321" style="mix-blend-mode: screen;isolation: isolate"/>
    <path id="Path_2891" data-name="Path 2891" d="M540,740.5Z" transform="translate(-487.938 -669.697)" fill="#f47321" style="mix-blend-mode: screen;isolation: isolate"/>
    <path id="Path_2892" data-name="Path 2892" d="M540,740.507v0h0Z" transform="translate(-487.938 -669.701)" fill="#f47321" style="mix-blend-mode: screen;isolation: isolate"/>
    <path id="Path_2893" data-name="Path 2893" d="M540,740.507v0h0Z" transform="translate(-487.938 -669.701)" fill="#f47321" style="mix-blend-mode: screen;isolation: isolate"/>
    <path id="Path_2894" data-name="Path 2894" d="M539.5,710.22a26.768,26.768,0,0,0,0,4.335A26.9,26.9,0,0,0,539.5,710.22Z" transform="translate(-487.436 -643.76)" fill="#f47321" style="mix-blend-mode: screen;isolation: isolate"/>
    <path id="Path_2895" data-name="Path 2895" d="M540,740.506Z" transform="translate(-487.938 -669.701)" fill="#f47321" style="mix-blend-mode: screen;isolation: isolate"/>
    <path id="Path_2896" data-name="Path 2896" d="M540,740.506Z" transform="translate(-487.938 -669.701)" fill="#f47321" style="mix-blend-mode: screen;isolation: isolate"/>
    <path id="Path_2897" data-name="Path 2897" d="M540,740.506h0l0,0h0l0,0Z" transform="translate(-487.938 -669.701)" fill="#f47321" style="mix-blend-mode: screen;isolation: isolate"/>
    <path id="Path_2898" data-name="Path 2898" d="M540,740.506h0l0,0h0l0,0Z" transform="translate(-487.938 -669.701)" fill="#f47321" style="mix-blend-mode: screen;isolation: isolate"/>
    <path id="Path_2899" data-name="Path 2899" d="M540,740.506h0l0,0h0l0,0Z" transform="translate(-487.938 -669.701)" fill="#f47321" style="mix-blend-mode: screen;isolation: isolate"/>
    <g id="Group_1982" data-name="Group 1982" transform="translate(0 0)">
      <path id="Path_2900" data-name="Path 2900" d="M465.71,286.184c3.106-5.5,7.8-10.313,12.445-14.169a108.781,108.781,0,0,0-12.444-24.985,108.8,108.8,0,0,0-12.445,24.986C457.906,275.872,462.6,280.684,465.71,286.184Z" transform="translate(-413.649 -247.03)" fill="url(#linear-gradient)"/>
      <path id="Path_2901" data-name="Path 2901" d="M355.162,377.656a54.147,54.147,0,0,1,3.019-16.667,89.482,89.482,0,0,0-15.064-10.081,103.217,103.217,0,0,0-.3,23.879,51.782,51.782,0,0,1,12.372,4.1C355.171,378.481,355.162,378.072,355.162,377.656Z" transform="translate(-318.564 -336.003)" fill="url(#linear-gradient-2)"/>
      <path id="Path_2902" data-name="Path 2902" d="M629.727,378.886a51.771,51.771,0,0,1,12.37-4.1,103.209,103.209,0,0,0-.3-23.879,89.49,89.49,0,0,0-15.063,10.08,54.133,54.133,0,0,1,3.02,16.668C629.75,378.071,629.74,378.48,629.727,378.886Z" transform="translate(-562.224 -336.003)" fill="url(#linear-gradient-2)"/>
      <path id="Path_2903" data-name="Path 2903" d="M267.479,524.082a49.644,49.644,0,0,1-4.273-15.978,74.491,74.491,0,0,0-13.9-1.546s3.312,12.263,10,22.192a33.437,33.437,0,0,1,9.745-1.847A30.345,30.345,0,0,1,267.479,524.082Z" transform="translate(-238.957 -469.32)" fill="url(#linear-gradient-4)"/>
      <path id="Path_2904" data-name="Path 2904" d="M693.047,526.9a33.418,33.418,0,0,1,9.747,1.847c6.69-9.929,10-22.192,10-22.192a74.5,74.5,0,0,0-13.9,1.546,49.614,49.614,0,0,1-4.274,15.978A30.44,30.44,0,0,1,693.047,526.9Z" transform="translate(-619.025 -469.32)" fill="url(#linear-gradient-4)"/>
      <path id="Path_2905" data-name="Path 2905" d="M571.72,661.223a36.759,36.759,0,0,1-7.2,8.129c-11.484,9.244-24.43,3.285-24.5,3.251.09.167,7.167,13.184,21.452,13.162,14.377-.021,30.608-13.244,30.608-13.244S582.6,664.847,571.72,661.223Z" transform="translate(-487.952 -601.793)" fill="url(#linear-gradient-6)"/>
      <path id="Path_2906" data-name="Path 2906" d="M229.214,672.6h0c-.065.03-13.016,6-24.5-3.251a36.766,36.766,0,0,1-7.2-8.128c-10.88,3.624-20.355,11.3-20.355,11.3s16.23,13.222,30.608,13.244c14.313.021,21.39-13.047,21.453-13.163h0Z" transform="translate(-177.154 -601.795)" fill="url(#linear-gradient-7)"/>
    </g>
    <path id="Path_2907" data-name="Path 2907" d="M539.986,740.5v0h0l0,0Z" transform="translate(-487.924 -669.693)" fill="#f47321" style="mix-blend-mode: screen;isolation: isolate"/>
    <path id="Path_2908" data-name="Path 2908" d="M539.986,740.5v0h0l0,0Z" transform="translate(-487.924 -669.693)" fill="#f47321" style="mix-blend-mode: screen;isolation: isolate"/>
    <path id="Path_2909" data-name="Path 2909" d="M539.986,740.488v0Z" transform="translate(-487.926 -669.682)" fill="#f47321" style="mix-blend-mode: screen;isolation: isolate"/>
    <path id="Path_2910" data-name="Path 2910" d="M539.986,740.488v0Z" transform="translate(-487.926 -669.682)" fill="#f47321" style="mix-blend-mode: screen;isolation: isolate"/>
    <path id="Path_2911" data-name="Path 2911" d="M539.986,740.488v0Z" transform="translate(-487.926 -669.682)" fill="#f47321" style="mix-blend-mode: screen;isolation: isolate"/>
    <g id="Group_1983" data-name="Group 1983" transform="translate(20.355 24.985)">
      <path id="Path_2912" data-name="Path 2912" d="M432.25,439.066a30.718,30.718,0,0,1,5.6,3.529,24.964,24.964,0,0,1,5.831,6.723A30.574,30.574,0,0,1,446.809,437c.276-.561.572-1.115.881-1.663-3.106-5.5-7.8-10.312-12.444-14.169a54.143,54.143,0,0,0-3.019,16.667C432.227,438.251,432.236,438.66,432.25,439.066Z" transform="translate(-415.984 -421.167)" fill="url(#linear-gradient-8)"/>
      <path id="Path_2913" data-name="Path 2913" d="M540,435.332c.31.548.6,1.1.881,1.663a30.582,30.582,0,0,1,3.132,12.318,24.951,24.951,0,0,1,5.83-6.723,30.7,30.7,0,0,1,5.6-3.53c.014-.406.023-.815.023-1.23a54.142,54.142,0,0,0-3.02-16.668C547.8,425.019,543.1,429.832,540,435.332Z" transform="translate(-508.292 -421.163)" fill="url(#linear-gradient-9)"/>
      <path id="Path_2914" data-name="Path 2914" d="M352.015,536.134c.181,0,.361-.008.542-.007a22.482,22.482,0,0,1,11.748,3.321,34.349,34.349,0,0,1-5.769-18.013,51.8,51.8,0,0,0-12.372-4.1,49.634,49.634,0,0,0,4.273,15.978A30.533,30.533,0,0,0,352.015,536.134Z" transform="translate(-342.269 -503.536)" fill="url(#linear-gradient-10)"/>
      <path id="Path_2915" data-name="Path 2915" d="M607.41,539.448a22.484,22.484,0,0,1,11.749-3.321c.179,0,.359,0,.539.007a30.326,30.326,0,0,0,1.578-2.821,49.611,49.611,0,0,0,4.274-15.978,51.776,51.776,0,0,0-12.37,4.1A34.353,34.353,0,0,1,607.41,539.448Z" transform="translate(-566.031 -503.536)" fill="url(#linear-gradient-10)"/>
      <path id="Path_2916" data-name="Path 2916" d="M564.52,658.327a36.756,36.756,0,0,0,7.2-8.129,33.425,33.425,0,0,0-9.747-1.847c-8.019,12.692-21.957,13.226-21.957,13.226h0C540.09,661.612,553.036,667.571,564.52,658.327Z" transform="translate(-508.307 -615.753)" fill="url(#linear-gradient-12)"/>
      <path id="Path_2917" data-name="Path 2917" d="M326.221,658.327c11.487,9.247,24.439,3.281,24.5,3.251,0,0-13.938-.535-21.958-13.226a33.44,33.44,0,0,0-9.745,1.847A36.765,36.765,0,0,0,326.221,658.327Z" transform="translate(-319.021 -615.753)" fill="url(#linear-gradient-13)"/>
    </g>
    <path id="Path_2918" data-name="Path 2918" d="M539.975,740.52h0Z" transform="translate(-487.916 -669.711)" fill="#f47321" style="mix-blend-mode: screen;isolation: isolate"/>
    <path id="Path_2919" data-name="Path 2919" d="M539.975,740.52h0Z" transform="translate(-487.916 -669.711)" fill="#f47321" style="mix-blend-mode: screen;isolation: isolate"/>
    <path id="Path_2920" data-name="Path 2920" d="M539.983,740.512v0h0Z" transform="translate(-487.923 -669.705)" fill="#f47321" style="mix-blend-mode: screen;isolation: isolate"/>
    <path id="Path_2921" data-name="Path 2921" d="M539.983,740.512v0h0Z" transform="translate(-487.923 -669.705)" fill="#f47321" style="mix-blend-mode: screen;isolation: isolate"/>
    <path id="Path_2922" data-name="Path 2922" d="M539.983,740.512v0h0Z" transform="translate(-487.923 -669.705)" fill="#f47321" style="mix-blend-mode: screen;isolation: isolate"/>
    <g id="Group_1984" data-name="Group 1984" transform="translate(30.067 39.224)">
      <path id="Path_2923" data-name="Path 2923" d="M520.308,534.386a30.575,30.575,0,0,0-3.131-12.319c-.276-.562-.571-1.115-.881-1.663-.31.548-.6,1.1-.881,1.663a30.575,30.575,0,0,0-3.131,12.319,30.56,30.56,0,0,1,4.013,13.323A30.547,30.547,0,0,1,520.308,534.386Z" transform="translate(-494.265 -520.404)" fill="url(#linear-gradient-14)"/>
      <path id="Path_2924" data-name="Path 2924" d="M447.508,573.682a35.679,35.679,0,0,1-3.932-17.524,24.985,24.985,0,0,0-5.831-6.723,30.7,30.7,0,0,0-5.6-3.529,34.358,34.358,0,0,0,5.769,18.013A29.013,29.013,0,0,1,447.508,573.682Z" transform="translate(-425.628 -542.247)" fill="url(#linear-gradient-15)"/>
      <path id="Path_2925" data-name="Path 2925" d="M540.252,574.31v0h0a28.861,28.861,0,0,1,9.672-9.908,34.352,34.352,0,0,0,5.769-18.014,30.7,30.7,0,0,0-5.6,3.53,24.959,24.959,0,0,0-5.83,6.724A35.491,35.491,0,0,1,540.252,574.31Z" transform="translate(-518.221 -542.662)" fill="url(#linear-gradient-16)"/>
      <path id="Path_2926" data-name="Path 2926" d="M549.686,651.672a35.7,35.7,0,0,1-9.67,9.911h0s13.938-.535,21.957-13.227c-.18,0-.36-.007-.539-.007A22.474,22.474,0,0,0,549.686,651.672Z" transform="translate(-518.018 -629.993)" fill="url(#linear-gradient-17)"/>
      <path id="Path_2927" data-name="Path 2927" d="M398.994,651.625a22.48,22.48,0,0,0-11.748-3.321c-.18,0-.361,0-.541.007,8.019,12.691,21.955,13.226,21.958,13.226h0v0A35.7,35.7,0,0,1,398.994,651.625Z" transform="translate(-386.705 -629.952)" fill="url(#linear-gradient-18)"/>
    </g>
    <g id="Group_1985" data-name="Group 1985" transform="translate(42.39 53.136)">
      <path id="Path_2928" data-name="Path 2928" d="M515.8,634.883c.042.074.067.12.077.137l0,0a.027.027,0,0,1,0-.006,26.759,26.759,0,0,1,0-4.335,30.561,30.561,0,0,0-4.012-13.324A35.679,35.679,0,0,0,515.8,634.883Z" transform="translate(-506.205 -617.359)" fill="url(#linear-gradient-19)"/>
      <path id="Path_2929" data-name="Path 2929" d="M540,635.018s0,.006,0,.008a35.5,35.5,0,0,0,4.012-17.667A30.541,30.541,0,0,0,540,630.683,26.918,26.918,0,0,1,540,635.018Z" transform="translate(-530.324 -617.359)" fill="url(#linear-gradient-20)"/>
      <path id="Path_2930" data-name="Path 2930" d="M549.672,671.451A28.853,28.853,0,0,0,540,681.359l0,0A35.687,35.687,0,0,0,549.672,671.451Z" transform="translate(-530.328 -663.69)" fill="url(#linear-gradient-21)"/>
      <path id="Path_2931" data-name="Path 2931" d="M482.258,681.351c-.012-.02-.038-.067-.077-.137a29.015,29.015,0,0,0-9.591-9.762,35.7,35.7,0,0,0,9.669,9.91h0v0Z" transform="translate(-472.59 -663.69)" fill="url(#linear-gradient-22)"/>
    </g>
    <path id="Path_2932" data-name="Path 2932" d="M539.512,739.627c-.01-.017-.035-.064-.077-.137C539.473,739.56,539.5,739.607,539.512,739.627Z" transform="translate(-487.454 -668.831)" fill="#f47321" style="mix-blend-mode: screen;isolation: isolate"/>
    <path id="Path_2933" data-name="Path 2933" d="M539.512,739.627c-.01-.017-.035-.064-.077-.137C539.473,739.56,539.5,739.607,539.512,739.627Z" transform="translate(-487.454 -668.831)" fill="#f47321" style="mix-blend-mode: screen;isolation: isolate"/>
    <path id="Path_2934" data-name="Path 2934" d="M539.512,739.627c-.01-.017-.035-.064-.077-.137C539.473,739.56,539.5,739.607,539.512,739.627Z" transform="translate(-487.454 -668.831)" fill="#f47321" style="mix-blend-mode: screen;isolation: isolate"/>
    <path id="Path_2935" data-name="Path 2935" d="M539.512,739.627c-.01-.017-.035-.064-.077-.137C539.473,739.56,539.5,739.607,539.512,739.627Z" transform="translate(-487.454 -668.831)" fill="#f47321" style="mix-blend-mode: screen;isolation: isolate"/>
    <path id="Path_2936" data-name="Path 2936" d="M539.512,739.627c-.01-.017-.035-.064-.077-.137C539.473,739.56,539.5,739.607,539.512,739.627Z" transform="translate(-487.454 -668.831)" fill="#f47321" style="mix-blend-mode: screen;isolation: isolate"/>
  </g>
  <path id="Path_2937" data-name="Path 2937" d="M141.287,74.494a66.792,66.792,0,1,0,66.792,66.792A66.792,66.792,0,0,0,141.287,74.494Zm38.907,112.548a63.717,63.717,0,0,0-77.814,0,60.061,60.061,0,1,1,77.814,0Z" transform="translate(-74.495 -74.494)" fill="#c82d05"/>
  <g id="Group_1991" data-name="Group 1991" transform="translate(32.222 37.984)">
    <path id="Path_2938" data-name="Path 2938" d="M478.763,348.456a2.892,2.892,0,0,1,.173-.448,1.871,1.871,0,0,1,1.677-.918c.142-.005-.08,0,.062,0a.372.372,0,0,0,.058-.02c0-.048,0-.106,0-.163.006-.795-.034-1.593.029-2.385a5.313,5.313,0,0,1,3.048-4.354c3.569-1.94,8.252-.777,9.991,2.452a4.8,4.8,0,0,1,.573,2.3q0,.994,0,1.986v.184h-.024a1.81,1.81,0,0,1,1.957,1.3.143.143,0,0,0,.027.036v3.439c-.029.09-.055.18-.088.268a1.861,1.861,0,0,1-1.736,1.09c-.613.012-.861.005-1.475,0-.229,0-.348-.1-.359-.294-.005-.074,0-.148,0-.222v-5.2a1.445,1.445,0,0,1,0-.148c.019-.176.134-.266.349-.269s.44,0,.67,0a.571.571,0,0,0,.021-.1c0-.786.041-1.574-.02-2.356a5.008,5.008,0,0,0-3.611-4.4c-3.584-1.367-7.709.372-8.563,3.574a4.887,4.887,0,0,0-.137,1.1c-.022.682-.006,1.363-.005,2.045,0,.044.006.087.012.141.232,0,.45,0,.67,0s.35.094.359.291c.008.157,0,.316,0,.474v4.965c0,.327-.091.4-.483.4-.626,0-.888.021-1.509-.023a1.723,1.723,0,0,1-1.639-1.268.367.367,0,0,0-.032-.067Z" transform="translate(-452.98 -339.22)" fill="#a82400" fill-rule="evenodd"/>
    <g id="Group_1990" data-name="Group 1990" transform="translate(0 1.611)">
      <g id="Group_1987" data-name="Group 1987" transform="translate(0.565)">
        <path id="Path_2939" data-name="Path 2939" d="M502.49,364.235a21.187,21.187,0,0,1-1.348-7.865,5.586,5.586,0,1,1,11.152,0,21.191,21.191,0,0,1-1.349,7.865l-.011,0c0,.014-.007.032-.01.048-.822,1.806-2.129,3.175-4.207,3.175s-3.385-1.369-4.206-3.177c0-.014-.007-.031-.01-.046Z" transform="translate(-472.713 -350.451)" fill="#ffc"/>
        <path id="Path_2940" data-name="Path 2940" d="M370.83,508.178c-.279.556-1.066,1.527-1.708,1.527h0c-.163,0-.46-.07-.615-.524a1.832,1.832,0,0,1,.7-1.987.2.2,0,0,0,.075-.18,3.016,3.016,0,0,1-.017-.485.2.2,0,0,0-.26-.2,2.326,2.326,0,0,1-.808.138,2.907,2.907,0,0,1-.387-.027l-.223.241a1.414,1.414,0,0,1-.19,1.026,1.1,1.1,0,0,1-.95.513c-.723,0-1.088-1.18-1.476-2.429a12.285,12.285,0,0,0-.462-1.33c-.163-.365-.326-.679-.483-.983-.127-.244-.245-.475-.349-.7a3.222,3.222,0,0,1,.086.409l.035.312-.3-.1c-2.2-.746-7.5-2.523-7.5-2.523l-.052-.029a26.173,26.173,0,0,0-7.4-3.328l-.168-.043.021-.174c.232-1.931-.869-4.088-1.6-5.516a6.84,6.84,0,0,1-.6-1.361,22.574,22.574,0,0,1,.277-9.689,10.467,10.467,0,0,0,.353-2.6,12.616,12.616,0,0,1,.328-3.79.2.2,0,0,1,.25-.142h0a.2.2,0,0,1,.136.236,12.441,12.441,0,0,0-.317,3.669,4.842,4.842,0,0,1-.04.956.239.239,0,0,0,0,.066,99.083,99.083,0,0,0,3.177,9.621c.2.542.363.985.471,1.287a8.176,8.176,0,0,0,2.648,2.93c.706.59,1.506,1.258,2.27,2.036a41.579,41.579,0,0,0,6.16,5.42,3.978,3.978,0,0,1,1.5,1.664,3.5,3.5,0,0,1-.114-.53,2.349,2.349,0,0,0-.727-1.322.2.2,0,0,1-.021-.261h0a.2.2,0,0,1,.3-.025,2.711,2.711,0,0,1,.845,1.556,5.426,5.426,0,0,0,.685,1.792c.152.294.325.628.493,1a12.785,12.785,0,0,1,.478,1.375c.281.909.666,2.151,1.1,2.151a.705.705,0,0,0,.617-.331.992.992,0,0,0,.079-.9c-.247-.552-.679-1.529-.786-1.9a4.551,4.551,0,0,1,.254-2.427l.116-.256.2.2a3.184,3.184,0,0,0,1.536.8l.2.019-.024.2a3.051,3.051,0,0,0,.074,1.11l.051.13-.106.092c-.137.119-.4.428-.342.627l.123.42-.4-.181a2.916,2.916,0,0,0-.751-.211.2.2,0,0,0-.2.275c.048.114.1.229.148.342a.2.2,0,0,0,.13.112,2.035,2.035,0,0,0,2.187-.449,1.956,1.956,0,0,0,.274-1.676c-.014-.109-.027-.212-.036-.309,0-.006,0-.011,0-.016a8.446,8.446,0,0,0-.8-2.342c-.305-.465-.952-.673-1.848-.961-.491-.157-1.049-.336-1.661-.594-1.84-.774-6.05-7.091-6.842-9.214-.738-1.981-3.532-4.07-3.56-4.091l-.109-.08.036-.133c.126-.451-1.073-3.84-1.74-5.242-.6-1.267-.849-2.992-.849-5.957,0-2.4-.245-6.71-1.889-8.633-.865-1.01-2.4-1.3-4.017-1.607a11.929,11.929,0,0,1-3.834-1.179,3.862,3.862,0,0,1-1.8-3.9.2.2,0,0,0-.348-.14,4.5,4.5,0,0,1-7.054,0,.2.2,0,0,0-.349.14,3.862,3.862,0,0,1-1.8,3.9,11.924,11.924,0,0,1-3.834,1.179c-1.62.306-3.151.6-4.016,1.607-1.643,1.923-1.889,6.235-1.889,8.633,0,2.965-.246,4.691-.849,5.957-.668,1.4-1.867,4.791-1.741,5.242l.036.133-.108.08c-.029.021-2.822,2.111-3.561,4.091-.791,2.122-5,8.44-6.841,9.214-.613.258-1.171.437-1.661.594-.9.288-1.543.5-1.848.961a8.421,8.421,0,0,0-.8,2.34c0,.007,0,.011,0,.018-.008.1-.022.2-.035.309a1.953,1.953,0,0,0,.273,1.676,2.037,2.037,0,0,0,2.189.449.2.2,0,0,0,.129-.112c.047-.112.1-.227.146-.342a.2.2,0,0,0-.2-.275,2.915,2.915,0,0,0-.75.211l-.4.182.124-.42c.06-.2-.2-.508-.342-.627l-.1-.091.05-.131a2.951,2.951,0,0,0,.074-1.11l-.023-.2.2-.019a3.178,3.178,0,0,0,1.537-.8l.2-.194.116.255a4.556,4.556,0,0,1,.255,2.427c-.107.367-.539,1.345-.787,1.9a1,1,0,0,0,.081.9.7.7,0,0,0,.617.331c.429,0,.814-1.243,1.1-2.151a12.818,12.818,0,0,1,.478-1.375c.168-.374.342-.707.493-1a5.426,5.426,0,0,0,.686-1.792,2.715,2.715,0,0,1,.845-1.556.2.2,0,0,1,.295.025h0a.2.2,0,0,1-.02.261,2.351,2.351,0,0,0-.727,1.322,3.469,3.469,0,0,1-.115.53,3.969,3.969,0,0,1,1.5-1.664,41.5,41.5,0,0,0,6.159-5.42c.764-.779,1.565-1.446,2.271-2.036a8.183,8.183,0,0,0,2.649-2.93c.107-.3.271-.745.472-1.29a99.411,99.411,0,0,0,3.175-9.618.219.219,0,0,0,0-.066,5.081,5.081,0,0,1-.041-.956,12.443,12.443,0,0,0-.316-3.669.2.2,0,0,1,.136-.236h0a.2.2,0,0,1,.249.142,12.686,12.686,0,0,1,.328,3.79,10.483,10.483,0,0,0,.352,2.6,22.6,22.6,0,0,1,.279,9.687,6.984,6.984,0,0,1-.6,1.363c-.729,1.427-1.829,3.585-1.6,5.516l.022.174-.169.043a26.21,26.21,0,0,0-7.4,3.328l-.051.029s-5.3,1.776-7.5,2.523l-.3.1.036-.312a2.993,2.993,0,0,1,.086-.409c-.1.23-.224.461-.35.7-.156.3-.318.618-.483.983a12.489,12.489,0,0,0-.462,1.33c-.387,1.248-.752,2.429-1.475,2.429a1.1,1.1,0,0,1-.951-.513,1.407,1.407,0,0,1-.188-1.026l-.224-.241a3.075,3.075,0,0,1-.387.028,2.33,2.33,0,0,1-.809-.139.2.2,0,0,0-.26.2,3.24,3.24,0,0,1-.017.485.2.2,0,0,0,.076.18,1.829,1.829,0,0,1,.7,1.987.649.649,0,0,1-.615.524h0c-.643,0-1.429-.97-1.709-1.527l-.043.172c-.036.139-.84,3.416,1.849,4.5,1.264.509,3.073.263,5.166-.021.995-.135,2.024-.276,3.138-.362,2.214-.172,9.976-1.346,16.213-2.291,3.765-.568,6.739-1.018,7.478-1.093a11.8,11.8,0,0,1,2.574.143,6.607,6.607,0,0,0,3.49-.124c1.35-.654,4.865-2.443,6.034-3.038a.2.2,0,0,0,.047-.318c-.453-.458-1.787-1.264-5.612-1.553a4.5,4.5,0,0,1-2.621-1.644,6.619,6.619,0,0,0-1.73-1.4c-1.353-.656-3.255-1.093-4.638.547a8.1,8.1,0,0,1-6.752,2.207c-1.463-.228-8.992-1.2-14.784,1.779a.2.2,0,0,1-.265-.082.2.2,0,0,1,.084-.271c5.9-3.035,13.54-2.05,15.026-1.818a7.659,7.659,0,0,0,6.387-2.073c1.207-1.431,3.024-1.662,5.115-.646a6.933,6.933,0,0,1,1.84,1.478,4.138,4.138,0,0,0,2.375,1.528c4.29.325,5.612,1.3,6.019,1.846a.2.2,0,0,0,.242.057,16.478,16.478,0,0,1,7.316-1.457.2.2,0,0,1,.188.216h0a.2.2,0,0,1-.205.182,15.924,15.924,0,0,0-7.463,1.581h-.005c-.047.026-4.8,2.448-6.424,3.238a6.859,6.859,0,0,1-3.713.161,11.427,11.427,0,0,0-2.484-.143c-.6.061-2.821.392-5.6.811a.2.2,0,0,0,0,.393c1.958.254,4.793.522,7.9.817,1.251.118,2.555.24,3.883.371,3.244.316,6.5.505,9.363.671,3.1.18,5.775.336,7.962.607,3.93.488,6.788.388,8.489-.3,2.694-1.087,1.859-4.467,1.849-4.5Z" transform="translate(-303.005 -443.723)" fill="#ffc"/>
      </g>
      <g id="Group_1988" data-name="Group 1988" transform="translate(0 59.614)">
        <path id="Path_2941" data-name="Path 2941" d="M307.677,771.445c.042.007.154,0,.24-.252.33-.976-.686-1.624-.73-1.651l-.113-.072.025-.133a2.794,2.794,0,0,0-.077-1.341c-.019-.018-.038-.034-.057-.052a2.3,2.3,0,0,1-.38-1.985.179.179,0,0,0,0-.028.689.689,0,0,0-.4.479l-.056.234,0,0a6.084,6.084,0,0,0,.155,3.38C306.432,770.459,307.237,771.445,307.677,771.445Z" transform="translate(-304.967 -765.931)" fill="#ffc"/>
        <path id="Path_2942" data-name="Path 2942" d="M301.65,773.794a6.5,6.5,0,0,1-.163-3.611.192.192,0,0,0-.019.005.49.49,0,0,0-.216.307,5.517,5.517,0,0,0-.055,3.109.537.537,0,0,0,.342.293l.174.043A.953.953,0,0,1,301.65,773.794Z" transform="translate(-300.71 -769.573)" fill="#ffc"/>
        <path id="Path_2943" data-name="Path 2943" d="M305.82,774.332c.042.007.156,0,.242-.254.333-.985-.693-1.64-.737-1.667l-.114-.073.025-.133a2.812,2.812,0,0,0-.077-1.353c-.019-.018-.038-.034-.057-.054a2.316,2.316,0,0,1-.384-2,.132.132,0,0,0,0-.027.694.694,0,0,0-.406.483l-.056.236h0a6.149,6.149,0,0,0,.156,3.411c.153.44.967,1.436,1.411,1.436" transform="translate(-303.363 -768.36)" fill="#ffc"/>
        <path id="Path_2944" data-name="Path 2944" d="M299.739,776.7a6.558,6.558,0,0,1-.164-3.645.161.161,0,0,0-.019.005.492.492,0,0,0-.218.31,5.576,5.576,0,0,0-.056,3.137.544.544,0,0,0,.346.3l.175.043a1.162,1.162,0,0,1-.064-.146" transform="translate(-299.068 -772.035)" fill="#ffc"/>
      </g>
      <g id="Group_1989" data-name="Group 1989" transform="translate(66.036 59.614)">
        <path id="Path_2945" data-name="Path 2945" d="M760.325,767.944l-.056.052a2.829,2.829,0,0,0-.078,1.341l.026.133-.115.072c-.043.027-1.06.675-.73,1.651.086.253.195.252.24.252.441,0,1.247-.986,1.4-1.423a6.1,6.1,0,0,0,.152-3.388h0l-.058-.224a.69.69,0,0,0-.4-.479.193.193,0,0,0,0,.028A2.292,2.292,0,0,1,760.325,767.944Z" transform="translate(-759.307 -765.931)" fill="#ffc"/>
        <path id="Path_2946" data-name="Path 2946" d="M773.793,770.495a.485.485,0,0,0-.216-.307.139.139,0,0,0-.018-.005,6.509,6.509,0,0,1-.163,3.611,1.28,1.28,0,0,1-.063.146l.173-.043a.534.534,0,0,0,.341-.293A5.505,5.505,0,0,0,773.793,770.495Z" transform="translate(-771.32 -769.573)" fill="#ffc"/>
        <path id="Path_2947" data-name="Path 2947" d="M762.627,770.851a2.853,2.853,0,0,0-.078,1.353l.026.133-.115.073c-.044.027-1.07.682-.736,1.667.087.255.2.254.242.254.445,0,1.257-1,1.411-1.436a6.169,6.169,0,0,0,.154-3.42h0l-.059-.226a.691.691,0,0,0-.406-.483c0,.01,0,.018,0,.027a2.312,2.312,0,0,1-.383,2c-.019.02-.038.035-.057.054" transform="translate(-761.319 -768.36)" fill="#ffc"/>
        <path id="Path_2948" data-name="Path 2948" d="M776.059,773.062a.138.138,0,0,0-.018-.005,6.557,6.557,0,0,1-.164,3.645c-.015.043-.039.094-.064.146l.175-.043a.541.541,0,0,0,.344-.3,5.568,5.568,0,0,0-.055-3.137.493.493,0,0,0-.219-.31" transform="translate(-773.445 -772.035)" fill="#ffc"/>
      </g>
    </g>
  </g>
</svg>
